<svg version="1.0" xmlns="http://www.w3.org/2000/svg"
 width="50.000000pt" height="50.000000pt" viewBox="0 0 50.000000 50.000000"
 preserveAspectRatio="xMidYMid meet">
<g transform="translate(0.000000,50.000000) scale(0.100000,-0.100000)"
fill="#000000" stroke="none">
<path d="M47 432 c-21 -23 -22 -75 -2 -92 8 -7 20 -30 25 -51 8 -27 20 -43 41
-54 33 -17 30 -35 -5 -35 -26 0 -56 -28 -56 -53 0 -21 23 -22 40 -2 14 17 40
20 40 5 0 -5 -6 -10 -14 -10 -13 0 -36 -48 -36 -76 0 -25 39 -16 46 11 6 25 7
25 124 25 117 0 118 0 124 -25 7 -27 46 -36 46 -11 0 28 -23 76 -36 76 -8 0
-14 5 -14 10 0 15 26 12 40 -5 17 -21 40 -19 40 3 0 24 -31 52 -58 52 -34 0
-35 18 -3 35 21 11 33 27 41 54 5 21 17 44 25 51 21 17 19 73 -3 93 -29 26
-52 22 -52 -10 0 -25 -1 -26 -20 -8 -28 25 -50 13 -50 -29 0 -27 7 -40 30 -58
27 -21 29 -26 17 -42 -12 -17 -29 -19 -123 -20 -94 -1 -112 2 -128 18 -18 18
-18 19 13 43 24 19 31 32 31 59 0 42 -22 54 -50 29 -19 -18 -20 -17 -20 8 0
32 -28 37 -53 9z"/>
</g>
</svg>
