<?xml version="1.0" standalone="no"?>
<!DOCTYPE svg PUBLIC "-//W3C//DTD SVG 20010904//EN"
 "http://www.w3.org/TR/2001/REC-SVG-20010904/DTD/svg10.dtd">
<svg version="1.0" xmlns="http://www.w3.org/2000/svg"
 width="50.000000pt" height="50.000000pt" viewBox="0 0 50.000000 50.000000"
 preserveAspectRatio="xMidYMid meet">
<metadata>
Created by potrace 1.16, written by Peter Selinger 2001-2019
</metadata>
<g transform="translate(0.000000,50.000000) scale(0.100000,-0.100000)"
fill="#000000" stroke="none">
<path d="M115 430 c-4 -6 1 -27 11 -45 15 -28 16 -37 4 -64 -15 -38 -27 -39
-42 -6 -14 32 -32 32 -46 0 -24 -52 -7 -155 25 -155 7 0 19 11 25 25 6 14 14
25 18 25 15 0 30 -56 27 -100 l-2 -45 62 2 c75 3 156 32 217 79 50 38 68 78
43 97 -8 7 -25 34 -38 60 -36 79 -108 120 -233 133 -45 5 -65 3 -71 -6z"/>
</g>
</svg>
