<?xml version="1.0" standalone="no"?>
<!DOCTYPE svg PUBLIC "-//W3C//DTD SVG 20010904//EN"
 "http://www.w3.org/TR/2001/REC-SVG-20010904/DTD/svg10.dtd">
<svg version="1.0" xmlns="http://www.w3.org/2000/svg"
 width="50.000000pt" height="50.000000pt" viewBox="0 0 50.000000 50.000000"
 preserveAspectRatio="xMidYMid meet">
<metadata>
Created by potrace 1.16, written by Peter Selinger 2001-2019
</metadata>
<g transform="translate(0.000000,50.000000) scale(0.100000,-0.100000)"
fill="#000000" stroke="none">
<path d="M173 426 c-22 -19 -28 -32 -28 -70 -1 -25 -4 -49 -8 -52 -10 -11 -9
-62 2 -68 10 -7 3 -44 -12 -63 -11 -15 -43 -17 -52 -3 -3 5 1 23 10 39 23 45
20 97 -7 115 -12 9 -31 16 -41 16 -19 0 -37 -32 -20 -37 5 -2 19 -10 29 -18
18 -13 18 -15 2 -45 -26 -46 -23 -85 8 -109 44 -35 91 -24 118 27 14 26 15 26
16 5 0 -49 -69 -85 -123 -65 -33 12 -47 8 -47 -13 0 -22 34 -35 88 -35 58 0
97 25 118 77 18 42 30 42 48 0 21 -52 60 -77 118 -77 54 0 88 13 88 35 0 21
-14 25 -47 13 -54 -20 -123 16 -123 65 1 21 2 21 16 -5 27 -51 74 -62 118 -27
31 24 34 63 9 109 -17 30 -17 32 1 45 10 8 24 16 29 18 17 5 -1 37 -20 37 -10
0 -29 -7 -41 -16 -27 -18 -30 -70 -7 -115 9 -16 13 -34 10 -39 -9 -14 -41 -12
-52 3 -15 19 -22 56 -12 63 11 6 12 57 2 68 -4 3 -7 27 -8 52 -1 63 -36 94
-105 94 -37 0 -56 -6 -77 -24z"/>
</g>
</svg>
