<?xml version="1.0" standalone="no"?>
<!DOCTYPE svg PUBLIC "-//W3C//DTD SVG 20010904//EN"
 "http://www.w3.org/TR/2001/REC-SVG-20010904/DTD/svg10.dtd">
<svg version="1.0" xmlns="http://www.w3.org/2000/svg"
 width="50.000000pt" height="50.000000pt" viewBox="0 0 50.000000 50.000000"
 preserveAspectRatio="xMidYMid meet">

<g transform="translate(0.000000,50.000000) scale(0.100000,-0.100000)"
fill="#000000" stroke="none">
<path d="M307 415 c-9 -8 -18 -28 -22 -44 -5 -22 -16 -32 -48 -45 -23 -9 -69
-38 -102 -65 -33 -27 -75 -53 -94 -58 -19 -5 -36 -14 -39 -21 -3 -9 17 -12 71
-12 42 0 98 -5 126 -12 50 -11 51 -12 51 -50 0 -38 0 -38 40 -38 29 0 40 4 40
15 0 9 -9 15 -25 15 -20 0 -25 5 -25 24 0 18 9 27 43 40 80 30 106 80 83 159
-8 26 -7 27 29 27 32 0 36 2 25 15 -7 8 -19 15 -27 15 -8 0 -24 11 -35 25 -22
29 -68 34 -91 10z m70 -31 c4 -10 -1 -22 -10 -29 -21 -15 -21 -22 -2 -41 39
-40 5 -105 -65 -124 -38 -10 -187 10 -174 23 4 4 42 7 83 7 90 0 121 15 121
60 0 16 -5 32 -11 35 -9 6 -4 57 8 78 8 13 44 7 50 -9z"/>
</g>
</svg>
