<?xml version="1.0" standalone="no"?>
<!DOCTYPE svg PUBLIC "-//W3C//DTD SVG 20010904//EN"
 "http://www.w3.org/TR/2001/REC-SVG-20010904/DTD/svg10.dtd">
<svg version="1.0" xmlns="http://www.w3.org/2000/svg"
 width="50.000000pt" height="50.000000pt" viewBox="0 0 50.000000 50.000000"
 preserveAspectRatio="xMidYMid meet">

<g transform="translate(0.000000,50.000000) scale(0.100000,-0.100000)"
fill="#000000" stroke="none">
<path d="M243 459 c-52 -15 -76 -54 -71 -115 4 -52 4 -52 -20 -41 -20 9 -26 8
-38 -8 -17 -23 -18 -65 -2 -100 12 -27 27 -32 45 -14 15 15 33 3 33 -22 0 -11
9 -37 20 -58 33 -66 113 -87 155 -41 35 38 -2 110 -42 84 -26 -16 -23 -39 5
-36 27 2 26 -15 -1 -32 -23 -15 -51 4 -55 36 -2 16 7 35 28 56 40 42 40 79 0
117 -38 36 -38 46 1 38 32 -6 79 12 79 31 0 6 -12 20 -27 32 -23 18 -25 24
-14 37 15 19 5 41 -15 33 -7 -3 -16 -1 -19 4 -7 12 -19 11 -62 -1z"/>
</g>
</svg>
