<?xml version="1.0" standalone="no"?>
<!DOCTYPE svg PUBLIC "-//W3C//DTD SVG 20010904//EN"
 "http://www.w3.org/TR/2001/REC-SVG-20010904/DTD/svg10.dtd">
<svg version="1.0" xmlns="http://www.w3.org/2000/svg"
 width="50.000000pt" height="50.000000pt" viewBox="0 0 50.000000 50.000000"
 preserveAspectRatio="xMidYMid meet">

<g transform="translate(0.000000,50.000000) scale(0.100000,-0.100000)"
fill="#000000" stroke="none">
<path d="M349 408 c-9 -7 -25 -35 -34 -61 -22 -58 -38 -70 -131 -95 -98 -27
-130 -46 -143 -83 -15 -42 0 -66 49 -79 46 -12 67 -6 49 16 -10 12 -1 14 59
14 49 0 73 -4 82 -15 7 -8 28 -17 47 -21 42 -8 65 9 34 25 -27 15 -27 25 4 41
13 7 31 28 40 47 14 29 15 42 5 80 -10 43 -10 47 14 72 32 33 33 47 4 54 -13
3 -32 8 -43 12 -11 3 -27 0 -36 -7z"/>
<path d="M405 141 c-10 -18 7 -41 31 -41 13 0 24 4 24 9 0 14 -48 42 -55 32z"/>
</g>
</svg>
