<?xml version="1.0" standalone="no"?>
<!DOCTYPE svg PUBLIC "-//W3C//DTD SVG 20010904//EN"
 "http://www.w3.org/TR/2001/REC-SVG-20010904/DTD/svg10.dtd">
<svg version="1.0" xmlns="http://www.w3.org/2000/svg"
 width="50.000000pt" height="50.000000pt" viewBox="0 0 50.000000 50.000000"
 preserveAspectRatio="xMidYMid meet">

<g transform="translate(0.000000,50.000000) scale(0.100000,-0.100000)"
fill="#000000" stroke="none">
<path d="M149 422 c-92 -48 -124 -148 -77 -242 56 -110 205 -103 239 11 13 43
-1 81 -42 112 -24 17 -31 18 -63 7 -20 -6 -41 -20 -47 -31 -25 -47 13 -98 49
-66 22 20 42 22 42 4 0 -22 -34 -47 -63 -47 -68 0 -92 92 -38 144 104 100 250
-34 182 -166 -18 -37 -18 -37 4 -58 38 -36 66 -24 92 40 29 72 29 132 -1 195
-55 117 -165 156 -277 97z"/>
</g>
</svg>
