<svg width="64" height="56" viewBox="0 0 64 56" fill="none" xmlns="http://www.w3.org/2000/svg">
<path d="M36 36V12H8C5.7925 12 4 10.2 4 8C4 5.8 5.7925 4 8 4H54C55.1055 4 56 3.1055 56 2C56 0.8945 55.1055 0 54 0H8C3.59 0 0 3.5875 0 8C0 12.4125 3.59 16 8 16H8.35987C10.2674 27.3462 20.1111 36 31.9974 36H36ZM24 23C22.3438 23 21 21.6562 21 20C21 18.3425 22.3438 17 24 17C25.6562 17 27 18.3425 27 20C27 21.6625 25.6625 23 24 23ZM28.2 45.925C27.6063 47.47 28.3758 49.2063 29.9225 49.8025L30.6335 50.076C29.1625 50.2625 28 51.475 28 53C28 54.6562 29.3438 56 31 56H40V47.2463L32.0775 44.1987C30.5375 43.6125 28.8 44.2625 28.2 45.925ZM63.9 31.8375C63.8314 31.1183 63.6249 30.45 63.4857 29.7562L47.9108 41.0838C47.9571 41.3843 48.003 41.6855 48.003 41.999C48.003 42.2285 47.9608 42.446 47.9356 42.6686L59.2044 47.6761C62.6 43.4 64.475 37.85 63.9 31.8375ZM44 47.6375V55.8975C48.6538 55.4771 52.88 53.61 56.2425 50.7463L46.2 46.2825C45.5875 46.8875 44.825 47.3375 44 47.6375ZM62.2375 25.7125C58.7625 17.55 50.35 12 41.05 12H39.9955V36H41.9955C43.5305 36 44.9155 36.5935 45.9767 37.5412L62.2375 25.7125Z" fill="black"/>
</svg>
