<?xml version="1.0" standalone="no"?>
<!DOCTYPE svg PUBLIC "-//W3C//DTD SVG 20010904//EN"
 "http://www.w3.org/TR/2001/REC-SVG-20010904/DTD/svg10.dtd">
<svg version="1.0" xmlns="http://www.w3.org/2000/svg"
 width="50.000000pt" height="50.000000pt" viewBox="0 0 50.000000 50.000000"
 preserveAspectRatio="xMidYMid meet">

<g transform="translate(0.000000,50.000000) scale(0.100000,-0.100000)"
fill="#000000" stroke="none">
<path d="M222 458 c-5 -7 -13 -33 -17 -58 -10 -63 -19 -70 -86 -70 -55 0 -89
-15 -89 -41 0 -5 26 -26 58 -46 31 -20 59 -37 61 -39 2 -2 -8 -35 -22 -73 -24
-63 -25 -72 -11 -86 18 -17 35 -11 95 36 45 35 49 36 80 3 13 -14 36 -32 51
-40 23 -12 29 -12 41 1 13 12 13 23 1 77 -7 35 -13 68 -14 75 0 6 23 28 50 48
28 20 50 40 50 43 -1 25 -25 37 -82 42 l-63 5 -25 51 c-39 80 -57 97 -78 72z
m58 -173 c0 -8 -7 -15 -15 -15 -16 0 -20 12 -8 23 11 12 23 8 23 -8z m-35 -95
c-5 -8 -11 -8 -17 -2 -6 6 -7 16 -3 22 5 8 11 8 17 2 6 -6 7 -16 3 -22z"/>
</g>
</svg>
