<?xml version="1.0" standalone="no"?>
<!DOCTYPE svg PUBLIC "-//W3C//DTD SVG 20010904//EN"
 "http://www.w3.org/TR/2001/REC-SVG-20010904/DTD/svg10.dtd">
<svg version="1.0" xmlns="http://www.w3.org/2000/svg"
 width="50.000000pt" height="50.000000pt" viewBox="0 0 50.000000 50.000000"
 preserveAspectRatio="xMidYMid meet">

<g transform="translate(0.000000,50.000000) scale(0.100000,-0.100000)"
fill="#000000" stroke="none">
<path d="M119 380 c-20 -10 -44 -31 -53 -45 -16 -24 -46 -108 -46 -129 0 -13
103 2 173 25 107 36 200 109 138 109 -10 0 -25 7 -32 17 -36 43 -121 54 -180
23z"/>
<path d="M360 288 c-58 -53 -130 -85 -233 -106 -95 -19 -98 -20 -74 -33 9 -6
17 -19 17 -29 0 -15 7 -20 28 -20 15 0 32 4 38 9 5 5 41 11 81 14 57 5 73 3
77 -9 5 -13 57 -20 68 -8 3 3 1 21 -5 40 -9 31 -8 37 12 57 15 16 34 22 64 22
40 0 42 1 45 33 4 39 -20 72 -52 72 -12 -1 -41 -19 -66 -42z"/>
</g>
</svg>
