<?xml version="1.0" standalone="no"?>
<!DOCTYPE svg PUBLIC "-//W3C//DTD SVG 20010904//EN"
 "http://www.w3.org/TR/2001/REC-SVG-20010904/DTD/svg10.dtd">
<svg version="1.0" xmlns="http://www.w3.org/2000/svg"
 width="50.000000pt" height="50.000000pt" viewBox="0 0 50.000000 50.000000"
 preserveAspectRatio="xMidYMid meet">

<g transform="translate(0.000000,50.000000) scale(0.100000,-0.100000)"
fill="#000000" stroke="none">
<path d="M405 401 c-3 -5 -21 -7 -40 -4 -42 7 -46 -7 -10 -43 26 -25 30 -40
19 -68 -10 -27 -38 -18 -79 25 -49 51 -90 69 -152 69 -59 0 -93 -21 -93 -58 0
-44 19 -100 44 -129 22 -26 23 -30 9 -56 -19 -37 -11 -44 30 -25 39 18 88 6
112 -30 18 -24 73 -57 83 -48 3 3 1 26 -5 50 -9 42 -9 46 18 65 36 27 57 67
69 133 6 28 17 59 25 68 22 24 19 60 -4 60 -11 0 -22 -4 -26 -9z m-160 -161
c-5 -8 -11 -8 -17 -2 -6 6 -7 16 -3 22 5 8 11 8 17 2 6 -6 7 -16 3 -22z m-85
-15 c29 -19 56 -35 61 -35 5 0 9 -9 9 -20 0 -26 -23 -26 -65 0 -33 20 -65 60
-65 80 0 15 3 14 60 -25z"/>
</g>
</svg>
