{"accessors" : [{"bufferView" : 0, "byteOffset" : 0, "componentType" : 5123, "count" : 2178, "type" : "SCALAR", "max" : [2177], "min" : [0]}, {"bufferView" : 1, "byteOffset" : 0, "componentType" : 5126, "count" : 2178, "type" : "VEC3", "max" : [32.177284240722656, 61.2796516418457, 88.68443298339844], "min" : [-32.177284240722656, -80.88327026367188, 0.4673271179199219], "name" : "POSITION"}, {"bufferView" : 1, "byteOffset" : 12, "componentType" : 5126, "count" : 2178, "type" : "VEC3", "max" : [0.9999164342880249, 0.9988281726837158, 0.9984980225563049], "min" : [-0.9999164342880249, -0.9872210025787354, -1.0000044107437134], "name" : "NORMAL"}, {"bufferView" : 1, "byteOffset" : 24, "componentType" : 5126, "count" : 2178, "type" : "VEC2", "max" : [0.9936233758926392, -0.005308762192726135], "min" : [-0.0014656506245955825, -0.9871112108230591], "name" : "TEXCOORD_0"}], "asset" : {"generator" : "Aspose.3D 22.6.1", "version" : "2.0"}, "buffers" : [{"uri" : "data:application/octet-stream;base64,", "byteLength" : 74060}], "bufferViews" : [{"buffer" : 0, "byteOffset" : 0, "byteLength" : 4356, "target" : 34963}, {"buffer" : 0, "byteOffset" : 4360, "byteLength" : 69696, "byteStride" : 32, "target" : 34962}], "materials" : [{"name" : "Material #12", "pbrMetallicRoughness" : {"baseColorFactor" : [0.5882353186607361, 0.5882353186607361, 0.5882353186607361, 1], "metallicFactor" : 0, "roughnessFactor" : 0}, "emissiveFactor" : [1, 1, 1], "alphaMode" : "OPAQUE", "doubleSided" : false}], "meshes" : [{"primitives" : [{"attributes" : {"POSITION" : 1, "NORMAL" : 2, "TEXCOORD_0" : 3}, "indices" : 0, "material" : 0, "mode" : 4}], "name" : "Warbear"}], "nodes" : [{"matrix" : [1, 0, 0, 0, 0, 2.83276944882399E-16, -1, 0, 0, 1, 2.83276944882399E-16, 0, 0, 0, 0, 1], "mesh" : 0, "name" : "Warbear"}], "scene" : 0, "scenes" : [{"nodes" : [0]}]}